<?xml version="1.0" encoding="utf-8"?>
<!-- Generator: Adobe Illustrator 23.0.3, SVG Export Plug-In . SVG Version: 6.00 Build 0)  -->
<svg version="1.1" id="Layer_1" xmlns="http://www.w3.org/2000/svg" xmlns:xlink="http://www.w3.org/1999/xlink" x="0px" y="0px"
	 width="490px" height="341px" viewBox="0 0 490 341" style="enable-background:new 0 0 490 341;" xml:space="preserve">
<style type="text/css">
	.st0{fill:#EEEEEE;}
	.st1{fill:#666766;}
	.st2{fill:#CCCCCB;}
</style>
<rect class="st0" width="490" height="341"/>
<g>
	<g>
		<path class="st1" d="M252.6,151.6c0,0.3-0.2,0.4-0.4,0.5c-10.5,10.5-21,21-31.6,31.6c-0.1,0.1-0.3,0.4-0.5,0.4
			c-0.2,0-0.4-0.2-0.4-0.4c-0.1-0.7-0.4-1.4-0.6-2c-0.4-1-0.3-2.1-0.7-3c-0.1-0.3-0.2-0.7-0.2-1.1c0-0.9-0.1-1.8-0.1-2.6
			c0-1.3-0.1-2.7,0.2-4c0.3-1.1,0.4-2.2,0.8-3.3c0.4-1.1,0.8-2.1,1.1-3.2c0.1-0.4,0.4-0.8,0.6-1.3c0.6-1.3,1.5-2.3,2.2-3.5
			c0-0.1,0,0,0-0.1c0-0.1,0-0.1,0.1-0.2c0.6-0.5,1.1-1.1,1.5-1.7c0.4-0.6,1-1.1,1.5-1.6c0.6-0.4,1.3-0.8,1.7-1.4
			c0.4-0.5,0.9-0.7,1.4-1c0.3-0.1,0.6-0.2,0.8-0.4c0.7-0.5,1.5-0.8,2.2-1.2c0.9-0.5,1.9-0.9,2.9-1.2c0.9-0.3,1.7-0.7,2.7-0.7
			c0.3,0,0.6-0.1,0.9-0.2c0.5-0.2,0.9-0.3,1.5-0.3c1.9,0,3.9,0,5.8,0c0.5,0,1,0.1,1.5,0.3c0.3,0.1,0.6,0.2,0.9,0.2
			c0.5,0,1,0.1,1.4,0.4c0.2,0.1,0.4,0.1,0.6,0.1c0.7,0,1.3,0.6,2,0.7C252.5,151.3,252.6,151.4,252.6,151.6z"/>
		<path class="st1" d="M268,177.5c-0.2,1.3-0.4,2.6-0.8,3.9c-0.2,0.6-0.3,1.2-0.6,1.8c-0.5,1.4-1.1,2.6-1.9,3.9
			c-1,1.8-2.2,3.3-3.6,4.8c-1.2,1.2-2.5,2.3-3.8,3.3c-1.2,0.8-2.5,1.6-3.8,2.2c-1,0.5-2.1,0.9-3.2,1.2c-1.2,0.3-2.5,0.6-3.7,0.8
			c-0.3,0.1-0.7,0.1-1.1,0.1c-0.2,0-0.3,0-0.4-0.2c-0.1-0.2,0.1-0.2,0.2-0.3c4.6-4.6,9.1-9.1,13.7-13.7c2.8-2.8,5.5-5.5,8.3-8.3
			c0.1-0.1,0.2-0.4,0.4-0.3c0.2,0.1,0.1,0.3,0.2,0.5C268,177.3,268,177.4,268,177.5z"/>
		<g>
			<polygon class="st1" points="177.7,142.2 177.7,142.2 177.7,142.2 			"/>
			<polygon class="st1" points="178.2,140.6 178.2,140.6 178.2,140.6 			"/>
			<polygon class="st1" points="181.5,214.6 181.5,214.6 181.5,214.6 			"/>
			<polygon class="st1" points="179.1,138.2 179.1,138.2 179.1,138.2 			"/>
			<polygon class="st1" points="178.2,208.5 178.2,208.5 178.2,208.5 			"/>
			<polygon class="st1" points="179.1,210.9 179.1,210.9 179.1,210.9 			"/>
			<polygon class="st1" points="189.5,128.7 189.5,128.7 189.5,128.7 			"/>
			<path class="st1" d="M275.7,127.7c-1.6,0-3.3,0-4.9,0c-0.7,0-1.2-0.2-1.7-0.7c-2.2-2.3-4.5-4.5-6.7-6.7c-0.4-0.4-0.7-0.5-1.3-0.5
				c-12.1,0-24.1,0-36.2,0c-0.5,0-0.8,0.2-1.1,0.5c-2.2,2.3-4.5,4.5-6.8,6.8c-0.5,0.5-1,0.7-1.7,0.7c-6.6,0-13.2,0-19.9,0
				c-0.8,0-1.6,0-2.4,0.1c0,0-0.1,0-0.1,0c-0.7,0.1-1.3,0.4-2,0.5l0,0c-0.5,0.1-0.9,0.5-1.4,0.5c-0.8,0.3-1.5,0.7-2.3,1
				c-0.3,0.2-0.5,0.5-0.8,0.5c-0.5,0.5-1.1,0.7-1.6,1.1c-0.1,0.1-0.2,0.2-0.3,0.3c-1.2,0.9-2.2,2-3.2,3.1c-0.7,0.8-1.1,1.8-1.8,2.6
				c-0.1,0.4-0.3,0.6-0.5,1c0,0.4-0.3,0.7-0.5,1.1l0,0c0,0.5-0.3,0.9-0.5,1.3c-0.1,0.6-0.2,1.1-0.5,1.7c-0.2,0.5,0,1.1-0.1,1.6
				c-0.2,0.8-0.3,1.6-0.3,2.4c0,18.7,0,37.4,0,56.1c0,1.5,0.3,3,0.4,4.6l0,0c0.2,0.6,0.5,1.1,0.5,1.7c0.2,0.4,0.5,0.8,0.5,1.3l0,0
				c0.2,0.4,0.4,0.7,0.5,1.1c0.2,0.4,0.4,0.8,0.6,1.1c0.5,0.9,1.1,1.8,1.8,2.6c0.5,0.5,1,1,1.5,1.5c0.6,0.6,1.3,1.1,1.9,1.7
				c0,0,0.1,0.1,0.1,0.1c0.3,0,0.4,0.4,0.7,0.5c0.2,0,0.3-0.2,0.5-0.3c8.8-8.8,17.6-17.5,26.3-26.3c0.1-0.1,0.3-0.2,0.3-0.5
				c-0.3-0.4-0.5-1-0.7-1.4c-0.5-1-1-1.9-1.3-3c-0.2-0.6-0.5-1.1-0.6-1.7c-0.2-0.8-0.4-1.7-0.7-2.5c-0.3-1-0.4-2.1-0.7-3.1
				c-0.4-1.3-0.1-2.6-0.3-4c-0.1-1.9,0.1-3.7,0.1-5.6c0-0.4,0.1-0.7,0.2-1c0.3-1.1,0.4-2.3,0.7-3.4c0.1-0.2,0-0.4,0.1-0.6
				c0.4-0.7,0.5-1.5,0.8-2.2c0.4-0.9,0.7-1.9,1.1-2.8c0.2-0.4,0.3-0.9,0.7-1.2c0-0.1,0.1-0.1,0.1-0.2c0.1-0.2,0.1-0.4,0.2-0.6
				c0.7-1.1,1.4-2.3,2.2-3.4c1.6-2.3,3.5-4.3,5.6-6.2c1.7-1.5,3.5-2.8,5.5-3.9c0.4-0.2,0.8-0.6,1.3-0.6c0.4-0.2,0.8-0.3,1.2-0.6
				c0.9-0.7,1.9-0.9,2.9-1.3c0.7-0.3,1.4-0.4,2.1-0.7c0.8-0.3,1.7-0.4,2.6-0.7c0.7-0.2,1.4-0.3,2.1-0.4c1.3-0.3,2.7-0.1,4-0.2
				c1.9-0.1,3.7,0.1,5.6,0.1c0.4,0,0.9,0.1,1.3,0.3c0.3,0.1,0.5,0.2,0.8,0.2c1-0.1,1.9,0.4,2.8,0.6c1.2,0.3,2.4,0.7,3.5,1.2
				c1.3,0.5,2.6,1.3,3.9,1.8c0.3,0,0.4-0.2,0.5-0.4c5.2-5.2,10.5-10.5,15.7-15.7c0.1-0.1,0.3-0.2,0.3-0.5
				C276.2,127.6,276,127.7,275.7,127.7z M202,151.7c0,0.6-0.2,0.7-0.7,0.7c-3.5,0-7.1,0-10.6,0c-0.5,0-0.7-0.2-0.7-0.7
				c0-1.8,0-3.6,0-5.4c0-1.8,0-3.6,0-5.4c0-0.5,0.2-0.7,0.7-0.7c3.5,0,7.1,0,10.6,0c0.5,0,0.7,0.2,0.7,0.7
				C202,144.5,202,148.1,202,151.7z"/>
			<polygon class="st1" points="179.6,137.2 179.6,137.2 179.6,137.2 			"/>
			<polygon class="st1" points="187.3,129.7 187.3,129.7 187.3,129.7 			"/>
		</g>
		<path class="st1" d="M275.8,186.2c0.5-1,0.7-2.1,1-3.1c0.3-1,0.2-2.1,0.7-3.1c0.1-0.3,0.1-0.7,0.2-1c0.2-2.9,0.1-5.9,0-8.8
			c0-0.4-0.1-0.9-0.3-1.3c-0.4-0.8-0.2-1.4,0.4-2c9.4-9.4,18.9-18.9,28.3-28.3c0.1-0.1,0.2-0.3,0.4-0.4c0.2-0.2,0.5-0.2,0.6,0.1
			c0.3,1,0.9,2,1.1,3.1c0,0.4,0.5,0.7,0.4,1.2c0,0.9,0.1,1.7,0.3,2.5c0.1,0.3,0.1,0.6,0.1,0.9c0,11.5,0,23.1,0,34.6
			c0,6.9,0,13.9,0,20.8c0,1.7-0.3,3.4-0.5,5.2c-0.1,0.7-0.4,1.5-0.7,2.3c-0.2,0.6-0.5,1.2-0.7,1.8c-0.2,0.7-0.6,1.3-1,1.9
			c-0.9,1.4-2,2.7-3.2,3.8c-0.8,0.8-1.7,1.4-2.7,2.1c-0.7,0.5-1.5,0.8-2.2,1.2c-0.5,0.3-1,0.6-1.6,0.6c-0.5,0-0.8,0.4-1.3,0.5
			c-0.7,0-1.3,0.4-2.1,0.5c-0.2,0-0.4,0-0.6,0c-8.2,0-16.3,0-24.5,0c-14.6,0-29.2,0-43.8,0c-0.1,0-0.2,0-0.2,0
			c-0.1,0-0.3,0.1-0.4-0.1c0-0.2,0.1-0.2,0.2-0.3c0.1-0.1,0.1-0.1,0.2-0.2c3.8-3.8,7.6-7.6,11.5-11.5c0.2-0.2,0.4-0.4,0.7-0.6
			c0.8-0.1,1.5,0.3,2.3,0.4c2.2,0.1,4.5,0.4,6.7,0.1c1-0.1,1.9,0.1,2.9-0.2c1.1-0.3,2.2-0.3,3.3-0.7c0.8-0.2,1.6-0.5,2.5-0.7
			c0.6-0.1,1.1-0.4,1.7-0.6c0.7-0.3,1.5-0.6,2.2-0.9c1-0.5,1.9-1,2.9-1.5c1.4-0.8,2.8-1.7,4.1-2.7c1.8-1.5,3.6-3,5-4.9
			c0.9-1.1,1.8-2.2,2.6-3.4c0.6-1,1.2-2,1.8-3c0.4-0.8,0.8-1.6,1.2-2.5C275.4,187.5,275.8,186.9,275.8,186.2z"/>
	</g>
	<path class="st2" d="M245,43.9c-69.9,0-126.6,56.7-126.6,126.6S175.1,297.1,245,297.1s126.6-56.7,126.6-126.6S314.9,43.9,245,43.9z
		 M142,170.5c0-56.9,46.1-103,103-103c25.5,0,48.8,9.3,66.8,24.6L166.6,237.3C151.2,219.3,142,196,142,170.5z M245,273.5
		c-25.5,0-48.8-9.3-66.8-24.6l145.2-145.2c15.4,18,24.6,41.3,24.6,66.8C348,227.4,301.9,273.5,245,273.5z"/>
</g>
</svg>
